<?xml version="1.0" encoding="UTF-8" standalone="no"?>
<!DOCTYPE svg PUBLIC "-//W3C//DTD SVG 1.1//EN"
 "http://www.w3.org/Graphics/SVG/1.1/DTD/svg11.dtd">
<!-- Generated by graphviz version 2.38.0 (20140413.2041)
 -->
<!-- Title: models_diagram Pages: 1 -->
<svg width="467pt" height="158pt"
 viewBox="0.00 0.00 467.34 158.00" xmlns="http://www.w3.org/2000/svg" xmlns:xlink="http://www.w3.org/1999/xlink">
<g id="graph0" class="graph" transform="scale(1 1) rotate(0) translate(4 154)">
<title>models_diagram</title>
<polygon fill="none" stroke="none" points="-4,4 -4,-154 463.343,-154 463.343,4 -4,4"/>
<!-- _diagram_info -->
<g id="node1" class="node"><title>_diagram_info</title>
<text text-anchor="start" x="8" y="-135.6" font-family="Times,serif" font-size="13.00">Models diagram</text>
<text text-anchor="start" x="8" y="-121.6" font-family="Times,serif" font-size="13.00">Date: Apr 06 2017 &#45; 00:36</text>
<text text-anchor="start" x="8" y="-107.6" font-family="Times,serif" font-size="13.00">Migration version: 20170403210900</text>
<text text-anchor="start" x="8" y="-93.6" font-family="Times,serif" font-size="13.00">Generated by RailRoady 1.5.2</text>
<text text-anchor="start" x="8" y="-79.6" font-family="Times,serif" font-size="13.00">http://railroady.prestonlee.com</text>
</g>
<!-- Photo -->
<g id="node2" class="node"><title>Photo</title>
<ellipse fill="none" stroke="black" cx="218" cy="-18" rx="31.3957" ry="18"/>
<text text-anchor="middle" x="218" y="-14.3" font-family="Times,serif" font-size="14.00">Photo</text>
</g>
<!-- ApplicationRecord -->
<g id="node3" class="node"><title>ApplicationRecord</title>
<ellipse fill="none" stroke="black" cx="382" cy="-111" rx="77.1866" ry="18"/>
<text text-anchor="middle" x="382" y="-107.3" font-family="Times,serif" font-size="14.00">ApplicationRecord</text>
</g>
<!-- User -->
<g id="node4" class="node"><title>User</title>
<ellipse fill="none" stroke="black" cx="259" cy="-111" rx="27.0966" ry="18"/>
<text text-anchor="middle" x="259" y="-107.3" font-family="Times,serif" font-size="14.00">User</text>
</g>
<!-- User&#45;&gt;Photo -->
<g id="edge1" class="edge"><title>User&#45;&gt;Photo</title>
<path fill="none" stroke="#f382ed" d="M248.153,-85.9252C242.453,-73.2742 235.463,-57.7594 229.649,-44.8543"/>
<ellipse fill="none" stroke="#f382ed" cx="249.837" cy="-89.6623" rx="4.00002" ry="4.00002"/>
<polygon fill="#f382ed" stroke="#f382ed" points="229.58,-44.7023 229.575,-33.7364 227.526,-40.1437 225.472,-35.585 225.472,-35.585 225.472,-35.585 227.526,-40.1437 221.37,-37.4335 229.58,-44.7023 229.58,-44.7023"/>
</g>
<!-- Tweet -->
<g id="node5" class="node"><title>Tweet</title>
<ellipse fill="none" stroke="black" cx="300" cy="-18" rx="32.4942" ry="18"/>
<text text-anchor="middle" x="300" y="-14.3" font-family="Times,serif" font-size="14.00">Tweet</text>
</g>
<!-- User&#45;&gt;Tweet -->
<g id="edge2" class="edge"><title>User&#45;&gt;Tweet</title>
<path fill="none" stroke="#90d75c" d="M269.847,-85.9252C275.547,-73.2742 282.537,-57.7594 288.351,-44.8543"/>
<ellipse fill="none" stroke="#90d75c" cx="268.163" cy="-89.6623" rx="4.00002" ry="4.00002"/>
<polygon fill="#90d75c" stroke="#90d75c" points="288.42,-44.7023 296.63,-37.4335 290.474,-40.1437 292.528,-35.585 292.528,-35.585 292.528,-35.585 290.474,-40.1437 288.425,-33.7364 288.42,-44.7023 288.42,-44.7023"/>
</g>
</g>
</svg>
