<?xml version="1.0" encoding="UTF-8" standalone="no"?>
<!DOCTYPE svg PUBLIC "-//W3C//DTD SVG 1.1//EN"
 "http://www.w3.org/Graphics/SVG/1.1/DTD/svg11.dtd">
<!-- Generated by graphviz version 2.38.0 (20140413.2041)
 -->
<!-- Title: models_diagram Pages: 1 -->
<svg width="656pt" height="243pt"
 viewBox="0.00 0.00 656.34 243.00" xmlns="http://www.w3.org/2000/svg" xmlns:xlink="http://www.w3.org/1999/xlink">
<g id="graph0" class="graph" transform="scale(1 1) rotate(0) translate(4 239)">
<title>models_diagram</title>
<polygon fill="none" stroke="none" points="-4,4 -4,-239 652.343,-239 652.343,4 -4,4"/>
<!-- _diagram_info -->
<g id="node1" class="node"><title>_diagram_info</title>
<text text-anchor="start" x="8" y="-213.6" font-family="Times,serif" font-size="13.00">Models diagram</text>
<text text-anchor="start" x="8" y="-199.6" font-family="Times,serif" font-size="13.00">Date: Apr 06 2017 &#45; 00:36</text>
<text text-anchor="start" x="8" y="-185.6" font-family="Times,serif" font-size="13.00">Migration version: 20170403210900</text>
<text text-anchor="start" x="8" y="-171.6" font-family="Times,serif" font-size="13.00">Generated by RailRoady 1.5.2</text>
<text text-anchor="start" x="8" y="-157.6" font-family="Times,serif" font-size="13.00">http://railroady.prestonlee.com</text>
</g>
<!-- Photo -->
<g id="node2" class="node"><title>Photo</title>
<path fill="none" stroke="black" d="M158,-0.5C158,-0.5 378,-0.5 378,-0.5 384,-0.5 390,-6.5 390,-12.5 390,-12.5 390,-94.5 390,-94.5 390,-100.5 384,-106.5 378,-106.5 378,-106.5 158,-106.5 158,-106.5 152,-106.5 146,-100.5 146,-94.5 146,-94.5 146,-12.5 146,-12.5 146,-6.5 152,-0.5 158,-0.5"/>
<text text-anchor="middle" x="268" y="-91.3" font-family="Times,serif" font-size="14.00">Photo</text>
<polyline fill="none" stroke="black" points="146,-83.5 390,-83.5 "/>
<text text-anchor="start" x="154" y="-68.3" font-family="Times,serif" font-size="14.00">id :integer</text>
<text text-anchor="start" x="154" y="-53.3" font-family="Times,serif" font-size="14.00">link :character varying</text>
<text text-anchor="start" x="154" y="-38.3" font-family="Times,serif" font-size="14.00">user_id :integer</text>
<text text-anchor="start" x="154" y="-23.3" font-family="Times,serif" font-size="14.00">created_at :timestamp without time zone</text>
<text text-anchor="start" x="154" y="-8.3" font-family="Times,serif" font-size="14.00">updated_at :timestamp without time zone</text>
</g>
<!-- ApplicationRecord -->
<g id="node3" class="node"><title>ApplicationRecord</title>
<ellipse fill="none" stroke="black" cx="571" cy="-189" rx="77.1866" ry="18"/>
<text text-anchor="middle" x="571" y="-185.3" font-family="Times,serif" font-size="14.00">ApplicationRecord</text>
</g>
<!-- User -->
<g id="node4" class="node"><title>User</title>
<path fill="none" stroke="black" d="M244,-143.5C244,-143.5 464,-143.5 464,-143.5 470,-143.5 476,-149.5 476,-155.5 476,-155.5 476,-222.5 476,-222.5 476,-228.5 470,-234.5 464,-234.5 464,-234.5 244,-234.5 244,-234.5 238,-234.5 232,-228.5 232,-222.5 232,-222.5 232,-155.5 232,-155.5 232,-149.5 238,-143.5 244,-143.5"/>
<text text-anchor="middle" x="354" y="-219.3" font-family="Times,serif" font-size="14.00">User</text>
<polyline fill="none" stroke="black" points="232,-211.5 476,-211.5 "/>
<text text-anchor="start" x="240" y="-196.3" font-family="Times,serif" font-size="14.00">id :integer</text>
<text text-anchor="start" x="240" y="-181.3" font-family="Times,serif" font-size="14.00">name :character varying</text>
<text text-anchor="start" x="240" y="-166.3" font-family="Times,serif" font-size="14.00">created_at :timestamp without time zone</text>
<text text-anchor="start" x="240" y="-151.3" font-family="Times,serif" font-size="14.00">updated_at :timestamp without time zone</text>
</g>
<!-- User&#45;&gt;Photo -->
<g id="edge1" class="edge"><title>User&#45;&gt;Photo</title>
<path fill="none" stroke="#63e568" d="M320.655,-136.237C316.283,-129.451 311.771,-122.446 307.312,-115.525"/>
<ellipse fill="none" stroke="#63e568" cx="322.958" cy="-139.812" rx="4.00002" ry="4.00002"/>
<polygon fill="#63e568" stroke="#63e568" points="307.123,-115.231 305.49,-104.387 304.415,-111.028 301.707,-106.824 301.707,-106.824 301.707,-106.824 304.415,-111.028 297.924,-109.261 307.123,-115.231 307.123,-115.231"/>
</g>
<!-- Tweet -->
<g id="node5" class="node"><title>Tweet</title>
<ellipse fill="none" stroke="black" cx="440" cy="-53.5" rx="32.4942" ry="18"/>
<text text-anchor="middle" x="440" y="-49.8" font-family="Times,serif" font-size="14.00">Tweet</text>
</g>
<!-- User&#45;&gt;Tweet -->
<g id="edge2" class="edge"><title>User&#45;&gt;Tweet</title>
<path fill="none" stroke="#c54648" d="M387.281,-136.338C399.874,-116.789 413.641,-95.4175 423.948,-79.418"/>
<ellipse fill="none" stroke="#c54648" cx="385.042" cy="-139.812" rx="4.00002" ry="4.00002"/>
<polygon fill="#c54648" stroke="#c54648" points="424.166,-79.0795 433.365,-73.1098 426.874,-74.8761 429.582,-70.6728 429.582,-70.6728 429.582,-70.6728 426.874,-74.8761 425.799,-68.2358 424.166,-79.0795 424.166,-79.0795"/>
</g>
</g>
</svg>
